<svg width="25" height="25" viewBox="0 0 25 25" fill="none" xmlns="http://www.w3.org/2000/svg">
<path d="M13.5334 12.1386L16.5089 9.1631L6.89819 3.76155C6.26123 3.41742 5.66452 3.36912 5.14127 3.74545L13.5334 12.1386ZM17.016 15.6222L20.1092 13.8824C20.713 13.5443 21.044 13.0653 21.044 12.534C21.044 12.0037 20.713 11.5238 20.1102 11.1857L17.3099 9.6129L14.1573 12.7645L17.016 15.6222ZM4.62406 4.477C4.55966 4.67523 4.52344 4.8966 4.52344 5.13911V19.936C4.52344 20.3194 4.60796 20.6494 4.76091 20.9121L12.9085 12.7635L4.62406 4.477ZM13.5334 13.3873L5.43107 21.4907C5.58604 21.55 5.75307 21.5812 5.92917 21.5812C6.24312 21.5812 6.57015 21.4887 6.90322 21.3035L16.2161 16.074L13.5334 13.3873Z" fill="white"/>
</svg>
