<svg width="24" height="24" viewBox="0 0 24 24" fill="none" xmlns="http://www.w3.org/2000/svg">
<path d="M19.0597 20.3659C18.9684 20.3661 18.8779 20.3481 18.7935 20.313C18.7092 20.2779 18.6326 20.2265 18.5683 20.1616L2.72827 4.22714C2.59874 4.09681 2.52629 3.92035 2.52686 3.7366C2.52743 3.55285 2.60097 3.37685 2.7313 3.24732C2.86164 3.11778 3.03809 3.04533 3.22184 3.0459C3.4056 3.04647 3.5816 3.12001 3.71113 3.25035L19.5507 19.1839C19.6475 19.2809 19.7133 19.4044 19.7399 19.5388C19.7665 19.6731 19.7526 19.8124 19.7 19.9389C19.6475 20.0654 19.5586 20.1735 19.4446 20.2495C19.3307 20.3255 19.1967 20.366 19.0597 20.3659Z" fill="white"/>
<path d="M16.7697 4.43237C14.6875 4.43237 13.3059 5.71182 12.5733 6.64056C11.8424 5.71052 10.4591 4.43237 8.3769 4.43237C7.92226 4.43206 7.47004 4.49843 7.03467 4.62938L8.24354 5.8179C9.20735 5.8179 10.227 6.20758 11.012 6.97265C11.3844 7.33538 11.7017 7.75068 11.9537 8.20533C12.0113 8.32016 12.0998 8.4167 12.2091 8.48416C12.3185 8.55162 12.4444 8.58735 12.5729 8.58735C12.7014 8.58735 12.8273 8.55162 12.9366 8.48416C13.046 8.4167 13.1344 8.32016 13.192 8.20533C13.4442 7.75001 13.7618 7.33412 14.1346 6.97092C14.9196 6.20758 15.8059 5.8179 16.7697 5.8179C18.638 5.8179 20.1738 7.3909 20.1933 9.32501C20.2166 11.6497 19.2082 13.6353 17.7088 15.3659L18.6887 16.3518C18.8186 16.2028 18.9355 16.0643 19.0411 15.9361C20.773 13.8254 21.6022 11.6583 21.5788 9.31159C21.5519 6.61977 19.3944 4.43237 16.7697 4.43237Z" fill="white"/>
<path d="M12.5721 19.6731C8.77833 17.0973 4.90838 13.8539 4.95168 9.32494C4.95444 9.05675 4.98697 8.7897 5.04867 8.5287L3.95583 7.4259C3.70493 8.02233 3.57257 8.6619 3.56615 9.30892C3.54277 11.6565 4.37279 13.8236 6.10383 15.9335C6.91653 16.9237 8.38995 18.5075 11.7927 20.8174C12.0222 20.9747 12.2939 21.0589 12.5721 21.0589C12.8503 21.0589 13.122 20.9747 13.3514 20.8174C14.2325 20.2195 14.9838 19.6701 15.628 19.1674L14.6469 18.1798C13.9684 18.7032 13.2687 19.199 12.5721 19.6731Z" fill="white"/>
</svg>
